<?xml version="1.0" encoding="iso-8859-1"?>
<svg version="1.1" id="Capa_1" xmlns="http://www.w3.org/2000/svg" xmlns:xlink="http://www.w3.org/1999/xlink" x="0px" y="0px"
	 viewBox="0 0 221.559 221.559" style="enable-background:new 0 0 221.559 221.559;" xml:space="preserve">
<path d="M143.869,102.927l-26.016-26.016l28.652-28.652l26.014,26.018L143.869,102.927z M26.016,220.779l107.247-107.246
	l-26.017-26.016L0,194.762L26.016,220.779z M84.795,24.35v11.838H72.959v10h11.836v11.837h10V46.188h11.838v-10H94.795V24.35H84.795
	z M182.887,0.779v11.836h-11.838v10h11.838v11.837h10V22.616h11.836v-10h-11.836V0.779H182.887z M221.559,73.776h-11.836V61.938h-10
	v11.838h-11.838v10h11.838v11.835h10V83.776h11.836V73.776z"/>
</svg>
