<?xml version="1.0" encoding="iso-8859-1"?>
<!-- Generator: Adobe Illustrator 19.0.0, SVG Export Plug-In . SVG Version: 6.00 Build 0)  -->
<svg version="1.1" id="Capa_1" xmlns="http://www.w3.org/2000/svg" xmlns:xlink="http://www.w3.org/1999/xlink" x="0px" y="0px"
	 viewBox="0 0 426.672 426.672" style="enable-background:new 0 0 426.672 426.672;" xml:space="preserve" transform = "scale(1, -1)">
<g>
	<g>
		<path d="M423.553,131.12l-128-128c-4.16-4.16-10.923-4.16-15.083,0L96.001,187.589L18.22,109.787
			c-3.051-3.051-7.616-3.947-11.627-2.304c-3.989,1.643-6.592,5.547-6.592,9.856v298.667c0,5.888,4.779,10.667,10.667,10.667
			h298.667c4.309,0,8.213-2.603,9.856-6.592c1.664-3.989,0.747-8.576-2.304-11.627l-77.803-77.781l184.448-184.448
			C427.713,142.043,427.713,135.301,423.553,131.12z"/>
	</g>
</g>
</svg>
