<?xml version="1.0" encoding="iso-8859-1"?>
<!-- Generator: Adobe Illustrator 19.0.0, SVG Export Plug-In . SVG Version: 6.00 Build 0)  -->
<svg xmlns="http://www.w3.org/2000/svg" xmlns:xlink="http://www.w3.org/1999/xlink" version="1.1" id="Capa_1" x="0px" y="0px" viewBox="0 0 512 512" style="enable-background:new 0 0 512 512;" xml:space="preserve" width="512px" height="512px">
<g>
	<g>
		<g>
			<path d="M298.667,246.538V64c0-23.531-19.135-42.667-42.667-42.667S213.333,40.469,213.333,64v182.538     c-25.381,14.803-42.667,42.021-42.667,73.462s17.285,58.659,42.667,73.462V448c0,23.531,19.135,42.667,42.667,42.667     s42.667-19.135,42.667-42.667v-54.538c25.381-14.803,42.667-42.021,42.667-73.462S324.048,261.341,298.667,246.538z" fill="#FFFFFF"/>
			<path d="M128,75.871V64c0-23.531-19.135-42.667-42.667-42.667S42.667,40.469,42.667,64v11.871C17.285,90.674,0,117.892,0,149.333     s17.285,58.659,42.667,73.462V448c0,23.531,19.135,42.667,42.667,42.667S128,471.531,128,448V222.796     c25.382-14.803,42.667-42.021,42.667-73.462S153.382,90.674,128,75.871z" fill="#FFFFFF"/>
			<path d="M469.333,118.538V64c0-23.531-19.135-42.667-42.667-42.667S384,40.469,384,64v54.538     c-25.381,14.803-42.667,42.021-42.667,73.462s17.285,58.659,42.667,73.462V448c0,23.531,19.135,42.667,42.667,42.667     s42.667-19.135,42.667-42.667V265.462C494.715,250.659,512,223.441,512,192S494.715,133.341,469.333,118.538z" fill="#FFFFFF"/>
		</g>
	</g>
</g>
<g>
</g>
<g>
</g>
<g>
</g>
<g>
</g>
<g>
</g>
<g>
</g>
<g>
</g>
<g>
</g>
<g>
</g>
<g>
</g>
<g>
</g>
<g>
</g>
<g>
</g>
<g>
</g>
<g>
</g>
</svg>
