<?xml version="1.0" encoding="iso-8859-1"?>
<!-- Generator: Adobe Illustrator 19.0.0, SVG Export Plug-In . SVG Version: 6.00 Build 0)  -->
<svg version="1.1" id="Capa_1" xmlns="http://www.w3.org/2000/svg" xmlns:xlink="http://www.w3.org/1999/xlink" x="0px" y="0px"
	 viewBox="0 0 512 512" style="enable-background:new 0 0 512 512;" xml:space="preserve">
<g>
	<g>
		<path d="M160.003,21.333h-42.667c-5.888,0-10.667,4.779-10.667,10.667s4.779,10.667,10.667,10.667h42.667
			c5.909,0,10.667-4.779,10.667-10.667S165.913,21.333,160.003,21.333z"/>
	</g>
</g>
<g>
	<g>
		<path d="M288.003,21.333h-42.667c-5.888,0-10.667,4.779-10.667,10.667s4.779,10.667,10.667,10.667h42.667
			c5.909,0,10.667-4.779,10.667-10.667S293.913,21.333,288.003,21.333z"/>
	</g>
</g>
<g>
	<g>
		<path d="M160.003,352h-42.667c-5.888,0-10.667,4.779-10.667,10.667s4.779,10.667,10.667,10.667h42.667
			c5.909,0,10.667-4.779,10.667-10.667S165.913,352,160.003,352z"/>
	</g>
</g>
<g>
	<g>
		<path d="M288.003,352h-42.667c-5.888,0-10.667,4.779-10.667,10.667s4.779,10.667,10.667,10.667h42.667
			c5.888,0,10.667-4.779,10.667-10.667S293.913,352,288.003,352z"/>
	</g>
</g>
<g>
	<g>
		<path d="M32.003,234.667c-5.909,0-10.667,4.779-10.667,10.667V288c0,5.888,4.779,10.667,10.667,10.667S42.67,293.888,42.67,288
			v-42.667C42.67,239.445,37.913,234.667,32.003,234.667z"/>
	</g>
</g>
<g>
	<g>
		<path d="M32.003,106.667c-5.909,0-10.667,4.779-10.667,10.667V160c0,5.888,4.779,10.667,10.667,10.667
			c5.909,0,10.667-4.779,10.667-10.667v-42.667C42.67,111.445,37.913,106.667,32.003,106.667z"/>
	</g>
</g>
<g>
	<g>
		<path d="M373.337,234.667c-5.888,0-10.667,4.779-10.667,10.667V288c0,5.888,4.779,10.667,10.667,10.667
			c5.888,0,10.667-4.779,10.667-10.667v-42.667C384.003,239.445,379.246,234.667,373.337,234.667z"/>
	</g>
</g>
<g>
	<g>
		<path d="M373.337,106.667c-5.909,0-10.667,4.779-10.667,10.667V160c0,5.888,4.779,10.667,10.667,10.667
			c5.888,0,10.667-4.779,10.667-10.667v-42.667C384.003,111.445,379.246,106.667,373.337,106.667z"/>
	</g>
</g>
<g>
	<g>
		<path d="M394.67,0h-42.667c-5.888,0-10.667,4.779-10.667,10.667v42.667c0,5.888,4.779,10.667,10.667,10.667h42.667
			c5.909,0,10.667-4.779,10.667-10.667V10.667C405.337,4.779,400.579,0,394.67,0z"/>
	</g>
</g>
<g>
	<g>
		<path d="M53.337,0H10.67C4.782,0,0.003,4.779,0.003,10.667v42.667C0.003,59.221,4.782,64,10.67,64h42.667
			c5.909,0,10.667-4.779,10.667-10.667V10.667C64.003,4.779,59.246,0,53.337,0z"/>
	</g>
</g>
<g>
	<g>
		<path d="M53.337,330.667H10.67c-5.888,0-10.667,4.779-10.667,10.667V384c0,5.888,4.779,10.667,10.667,10.667h42.667
			c5.909,0,10.667-4.779,10.667-10.667v-42.667C64.003,335.445,59.246,330.667,53.337,330.667z"/>
	</g>
</g>
<g>
	<g>
		<path d="M506.521,385.344l-192-106.667c-3.968-2.197-8.875-1.664-12.224,1.323c-3.392,2.987-4.544,7.765-2.859,11.968
			l85.333,213.333c1.6,4.011,5.461,6.656,9.771,6.699c0.043,0,0.085,0,0.128,0c4.267,0,8.128-2.539,9.813-6.464l30.315-70.741
			l70.741-30.315c3.733-1.6,6.229-5.205,6.443-9.259C512.195,391.168,510.062,387.328,506.521,385.344z"/>
	</g>
</g>
<g>
</g>
<g>
</g>
<g>
</g>
<g>
</g>
<g>
</g>
<g>
</g>
<g>
</g>
<g>
</g>
<g>
</g>
<g>
</g>
<g>
</g>
<g>
</g>
<g>
</g>
<g>
</g>
<g>
</g>
</svg>
